<?xml version="1.0" standalone="no"?>
<!DOCTYPE svg PUBLIC "-//W3C//DTD SVG 20010904//EN"
 "http://www.w3.org/TR/2001/REC-SVG-20010904/DTD/svg10.dtd">
<svg version="1.0" xmlns="http://www.w3.org/2000/svg"
 width="231.000000pt" height="140.000000pt" viewBox="0 0 231.000000 140.000000"
 preserveAspectRatio="xMidYMid meet">

<g transform="translate(0.000000,140.000000) scale(0.100000,-0.100000)"
fill="#000000" stroke="none">
<path d="M770 930 l0 -470 100 0 c55 0 100 3 100 8 0 4 -11 39 -25 77 -32 91
-34 186 -4 256 12 27 23 49 25 49 1 0 20 -10 41 -22 l38 -23 -37 44 c-49 57
-62 99 -53 170 7 62 8 94 3 161 -3 43 25 140 41 140 4 0 33 -25 65 -55 54 -51
61 -55 106 -55 27 0 67 -7 88 -15 38 -16 39 -16 91 20 29 19 57 35 62 35 18 0
9 -100 -12 -141 -12 -25 -21 -63 -22 -97 -2 -35 -11 -75 -25 -103 -27 -56 -27
-69 -2 -102 19 -23 111 -74 168 -91 l22 -7 0 345 0 346 -385 0 -385 0 0 -470z"/>
<path d="M1030 1090 c-13 -9 -13 -11 0 -20 15 -10 70 -14 70 -6 0 10 -32 36
-43 36 -7 0 -19 -5 -27 -10z"/>
<path d="M1253 1063 c-24 -9 -13 -22 22 -29 43 -8 52 -2 30 20 -17 16 -30 19
-52 9z"/>
<path d="M1147 989 c4 -15 0 -27 -13 -37 -18 -14 -18 -14 0 -8 10 3 26 1 35
-6 14 -11 14 -11 3 4 -8 9 -12 27 -10 39 2 12 -2 24 -9 26 -7 3 -9 -4 -6 -18z"/>
<path d="M512 262 c-8 -6 -13 -44 -15 -128 l-2 -119 30 0 c27 0 30 3 27 27 -3
21 7 34 51 70 35 27 56 52 59 69 5 33 0 49 -16 49 -7 0 -31 9 -54 20 -45 22
-60 24 -80 12z m79 -72 c18 0 9 -17 -15 -28 -21 -9 -23 -8 -23 14 0 18 4 24
14 20 8 -3 19 -6 24 -6z"/>
<path d="M1154 262 c-7 -4 -10 -32 -9 -70 3 -54 0 -64 -17 -73 -38 -20 -48 -5
-45 68 2 67 2 68 -25 71 -26 3 -28 1 -28 -35 -1 -21 -2 -75 -3 -121 -2 -46 1
-86 6 -89 17 -10 59 7 53 23 -4 9 3 18 20 24 34 13 32 14 36 -17 2 -22 8 -28
28 -28 21 0 25 5 28 35 2 19 10 39 18 43 19 11 18 31 -2 48 -12 10 -15 25 -11
62 3 39 1 50 -14 57 -21 12 -21 12 -35 2z"/>
<path d="M1441 256 c-6 -8 -12 -61 -14 -129 -2 -99 0 -117 14 -120 27 -7 47
10 42 36 -4 20 22 59 30 46 1 -2 10 -21 20 -41 11 -26 23 -38 37 -38 32 0 34
24 4 71 -26 42 -26 43 -7 59 12 9 23 29 27 46 6 28 4 30 -61 57 -79 31 -77 31
-92 13z m89 -73 c5 -5 -29 -33 -39 -33 -3 0 -6 11 -6 25 0 20 4 24 20 19 11
-4 22 -9 25 -11z"/>
<path d="M1637 253 c-3 -10 -5 -36 -6 -58 0 -22 -5 -65 -11 -94 -8 -44 -7 -59
5 -77 12 -18 19 -21 47 -15 18 4 36 8 41 9 4 1 28 2 53 2 l46 0 -7 113 c-4 61
-9 114 -11 116 -2 2 -27 5 -56 7 -29 2 -63 6 -75 9 -15 3 -23 0 -26 -12z m107
-90 c3 -21 6 -50 6 -64 0 -24 -4 -27 -39 -27 -31 -1 -38 3 -35 16 1 9 6 38 9
65 5 41 9 47 29 47 19 0 25 -7 30 -37z"/>
<path d="M688 252 c-2 -4 -3 -59 -3 -122 l0 -115 70 2 c67 1 70 2 73 27 3 21
-1 26 -20 26 -39 0 -68 12 -68 26 0 9 11 14 30 14 25 0 30 4 30 25 0 21 -5 25
-30 25 -23 0 -30 4 -30 20 0 17 7 20 43 20 24 0 48 5 55 12 9 9 12 9 12 0 0
-8 9 -10 25 -6 l25 6 -4 -96 c-1 -53 1 -99 6 -102 5 -3 19 -3 31 0 21 5 22 10
21 100 l-2 95 26 3 c19 2 27 9 27 23 0 19 -7 20 -157 22 -86 2 -159 -1 -160
-5z"/>
<path d="M1248 143 c-2 -65 0 -121 3 -126 3 -4 37 -4 75 0 59 7 69 11 69 28 0
15 -10 21 -42 28 -51 10 -60 37 -13 37 25 0 30 4 30 25 0 21 -5 25 -30 25 -23
0 -30 4 -30 20 0 17 7 20 45 20 43 0 45 1 45 30 l0 30 -74 0 -75 0 -3 -117z"/>
</g>
</svg>
